<?xml version="1.0" encoding="UTF-8" standalone="no"?>
<!-- Created with Inkscape (http://www.inkscape.org/) -->

<svg
   width="16"
   height="16"
   id="svg4428"
   version="1.1"
   inkscape:version="1.1 (c4e8f9ed74, 2021-05-24)"
   sodipodi:docname="close.svg"
   xmlns:inkscape="http://www.inkscape.org/namespaces/inkscape"
   xmlns:sodipodi="http://sodipodi.sourceforge.net/DTD/sodipodi-0.dtd"
   xmlns:xlink="http://www.w3.org/1999/xlink"
   xmlns="http://www.w3.org/2000/svg"
   xmlns:svg="http://www.w3.org/2000/svg"
   xmlns:rdf="http://www.w3.org/1999/02/22-rdf-syntax-ns#"
   xmlns:cc="http://creativecommons.org/ns#"
   xmlns:dc="http://purl.org/dc/elements/1.1/">
  <defs
     id="defs4430">
    <linearGradient
       id="linearGradient3913">
      <stop
         style="stop-color:#ffffff;stop-opacity:1;"
         offset="0"
         id="stop3915" />
      <stop
         id="stop3921"
         offset="0.5"
         style="stop-color:#ffffff;stop-opacity:0.49803922;" />
      <stop
         style="stop-color:#ffffff;stop-opacity:0;"
         offset="1"
         id="stop3917" />
    </linearGradient>
    <linearGradient
       id="linearGradient3868">
      <stop
         style="stop-color:#5a5a5a;stop-opacity:1;"
         offset="0"
         id="stop3870" />
      <stop
         style="stop-color:#646464;stop-opacity:1;"
         offset="1"
         id="stop3872" />
    </linearGradient>
    <linearGradient
       id="linearGradient3813">
      <stop
         style="stop-color:#666666;stop-opacity:1;"
         offset="0"
         id="stop3815" />
      <stop
         style="stop-color:#636363;stop-opacity:1;"
         offset="1"
         id="stop3817" />
    </linearGradient>
    <linearGradient
       id="linearGradient3787">
      <stop
         style="stop-color:#e5e5df;stop-opacity:1;"
         offset="0"
         id="stop3789" />
      <stop
         style="stop-color:#dadad4;stop-opacity:1;"
         offset="1"
         id="stop3791" />
    </linearGradient>
    <linearGradient
       id="linearGradient3806-3-5-6">
      <stop
         style="stop-color:#303030;stop-opacity:1;"
         offset="0"
         id="stop3808-6-9-1" />
      <stop
         style="stop-color:#232323;stop-opacity:1;"
         offset="1"
         id="stop3810-4-6-3" />
    </linearGradient>
    <linearGradient
       inkscape:collect="always"
       xlink:href="#linearGradient3787"
       id="linearGradient3793"
       x1="40"
       y1="1044.3622"
       x2="40"
       y2="1032.3622"
       gradientUnits="userSpaceOnUse" />
    <linearGradient
       inkscape:collect="always"
       xlink:href="#linearGradient3787"
       id="linearGradient3828"
       gradientUnits="userSpaceOnUse"
       x1="40"
       y1="1044.3622"
       x2="40"
       y2="1032.3622"
       gradientTransform="matrix(1.1666666,0,0,1.0769231,-6.5,-80.335554)" />
    <linearGradient
       inkscape:collect="always"
       xlink:href="#linearGradient3787-8"
       id="linearGradient3835"
       gradientUnits="userSpaceOnUse"
       gradientTransform="matrix(1.1666666,0,0,1.0769231,-35.5,-1105.6978)"
       x1="40"
       y1="1044.3622"
       x2="40"
       y2="1032.3622" />
    <linearGradient
       inkscape:collect="always"
       xlink:href="#linearGradient3787-8"
       id="linearGradient3835-4"
       gradientUnits="userSpaceOnUse"
       gradientTransform="matrix(1.1666666,0,0,1.0769231,-35.5,-1105.6978)"
       x1="40"
       y1="1044.3622"
       x2="40"
       y2="1032.3622" />
    <linearGradient
       id="linearGradient3787-8">
      <stop
         style="stop-color:#f5f5ee;stop-opacity:1;"
         offset="0"
         id="stop3789-2" />
      <stop
         style="stop-color:#e6e6df;stop-opacity:1;"
         offset="1"
         id="stop3791-6" />
    </linearGradient>
    <linearGradient
       inkscape:collect="always"
       xlink:href="#linearGradient3787-8"
       id="linearGradient3835-3"
       gradientUnits="userSpaceOnUse"
       gradientTransform="matrix(1.1666666,0,0,1.0769231,-35.5,-1105.6978)"
       x1="40"
       y1="1044.3622"
       x2="40"
       y2="1032.3622" />
    <linearGradient
       id="linearGradient3787-7">
      <stop
         style="stop-color:#f5f5ee;stop-opacity:1;"
         offset="0"
         id="stop3789-3" />
      <stop
         style="stop-color:#e6e6e0;stop-opacity:1;"
         offset="1"
         id="stop3791-3" />
    </linearGradient>
    <linearGradient
       inkscape:collect="always"
       xlink:href="#linearGradient3787"
       id="linearGradient3807"
       x1="11"
       y1="15.75"
       x2="11"
       y2="8.25"
       gradientUnits="userSpaceOnUse" />
    <linearGradient
       inkscape:collect="always"
       xlink:href="#linearGradient3813"
       id="linearGradient3819"
       x1="29.5"
       y1="15.2"
       x2="29.5"
       y2="8.8000002"
       gradientUnits="userSpaceOnUse" />
    <linearGradient
       inkscape:collect="always"
       xlink:href="#linearGradient4231"
       id="linearGradient3807-1"
       x1="10"
       y1="7.0000038"
       x2="10"
       y2="15.888954"
       gradientUnits="userSpaceOnUse" />
    <linearGradient
       id="linearGradient4231">
      <stop
         id="stop4233"
         offset="0"
         style="stop-color:#e7e7e1;stop-opacity:1;" />
      <stop
         id="stop4239"
         offset="1"
         style="stop-color:#dadad3;stop-opacity:1;" />
    </linearGradient>
    <linearGradient
       inkscape:collect="always"
       xlink:href="#linearGradient4231-1"
       id="linearGradient3807-1-1"
       x1="10"
       y1="15.888976"
       x2="10"
       y2="7.0000262"
       gradientUnits="userSpaceOnUse" />
    <linearGradient
       id="linearGradient4231-1">
      <stop
         id="stop4233-6"
         offset="0"
         style="stop-color:#e5e5de;stop-opacity:1;" />
      <stop
         id="stop4239-7"
         offset="1"
         style="stop-color:#dadad3;stop-opacity:1;" />
    </linearGradient>
    <linearGradient
       id="linearGradient4363">
      <stop
         style="stop-color:#979791;stop-opacity:1;"
         offset="0"
         id="stop4365" />
      <stop
         style="stop-color:#dadad4;stop-opacity:0;"
         offset="1"
         id="stop4367" />
    </linearGradient>
    <linearGradient
       id="linearGradient4363-7">
      <stop
         style="stop-color:#f5f5ef;stop-opacity:1;"
         offset="0"
         id="stop4365-9" />
      <stop
         style="stop-color:#dadad4;stop-opacity:0;"
         offset="1"
         id="stop4367-8" />
    </linearGradient>
    <linearGradient
       inkscape:collect="always"
       xlink:href="#linearGradient4231-7"
       id="linearGradient4361"
       gradientUnits="userSpaceOnUse"
       gradientTransform="matrix(1.1875,0,0,1,-41.25,0)"
       x1="248.63158"
       y1="79"
       x2="248.63158"
       y2="58" />
    <linearGradient
       id="linearGradient4231-7">
      <stop
         id="stop4233-4"
         offset="0"
         style="stop-color:#e6e6df;stop-opacity:1;" />
      <stop
         id="stop4239-8"
         offset="1"
         style="stop-color:#d1d1ca;stop-opacity:1;" />
    </linearGradient>
    <linearGradient
       inkscape:collect="always"
       xlink:href="#linearGradient4231-7"
       id="linearGradient3127"
       gradientUnits="userSpaceOnUse"
       gradientTransform="matrix(1.1875,0,0,1,-262.25,-55.99998)"
       x1="248.63158"
       y1="79"
       x2="248.63158"
       y2="58" />
    <linearGradient
       inkscape:collect="always"
       xlink:href="#linearGradient4231-7"
       id="linearGradient3154"
       gradientUnits="userSpaceOnUse"
       gradientTransform="matrix(1.1875,0,0,1,-262.25,-55.99998)"
       x1="248.63158"
       y1="79"
       x2="248.63158"
       y2="58" />
    <linearGradient
       inkscape:collect="always"
       xlink:href="#linearGradient4231-7"
       id="linearGradient3159"
       gradientUnits="userSpaceOnUse"
       gradientTransform="matrix(1.1875,0,0,1,-249.25,-54.99998)"
       x1="248.63158"
       y1="79"
       x2="248.63158"
       y2="58" />
    <linearGradient
       inkscape:collect="always"
       xlink:href="#linearGradient4231-7-9"
       id="linearGradient3159-0"
       gradientUnits="userSpaceOnUse"
       gradientTransform="matrix(1.1875,0,0,1,-262.25,-55.99998)"
       x1="248.63158"
       y1="79"
       x2="248.63158"
       y2="58" />
    <linearGradient
       id="linearGradient4231-7-9">
      <stop
         id="stop4233-4-2"
         offset="0"
         style="stop-color:#e6e6df;stop-opacity:1;" />
      <stop
         id="stop4239-8-9"
         offset="1"
         style="stop-color:#d1d1ca;stop-opacity:1;" />
    </linearGradient>
    <linearGradient
       id="linearGradient4231-5">
      <stop
         id="stop4233-41"
         offset="0"
         style="stop-color:#e5e5de;stop-opacity:1;" />
      <stop
         id="stop4239-73"
         offset="1"
         style="stop-color:#dadad3;stop-opacity:1;" />
    </linearGradient>
    <linearGradient
       inkscape:collect="always"
       xlink:href="#linearGradient4231-7-7"
       id="linearGradient3159-1"
       gradientUnits="userSpaceOnUse"
       gradientTransform="matrix(1.1875,0,0,1,-262.25,-55.99998)"
       x1="248.63158"
       y1="79"
       x2="248.63158"
       y2="58" />
    <linearGradient
       id="linearGradient4231-7-7">
      <stop
         id="stop4233-4-7"
         offset="0"
         style="stop-color:#e6e6df;stop-opacity:1;" />
      <stop
         id="stop4239-8-2"
         offset="1"
         style="stop-color:#d1d1ca;stop-opacity:1;" />
    </linearGradient>
    <linearGradient
       inkscape:collect="always"
       xlink:href="#linearGradient4231-73"
       id="linearGradient3807-1-7"
       x1="10"
       y1="15.888976"
       x2="10"
       y2="7.0000262"
       gradientUnits="userSpaceOnUse" />
    <linearGradient
       id="linearGradient4231-73">
      <stop
         id="stop4233-1"
         offset="0"
         style="stop-color:#e5e5de;stop-opacity:1;" />
      <stop
         id="stop4239-85"
         offset="1"
         style="stop-color:#dadad3;stop-opacity:1;" />
    </linearGradient>
  </defs>
  <sodipodi:namedview
     id="base"
     pagecolor="#eff0f1"
     bordercolor="#666666"
     borderopacity="1.0"
     inkscape:pageopacity="1"
     inkscape:pageshadow="2"
     inkscape:zoom="6.9226595"
     inkscape:cx="31.346334"
     inkscape:cy="13.434143"
     inkscape:document-units="px"
     inkscape:current-layer="layer1"
     showgrid="false"
     inkscape:snap-bbox="true"
     inkscape:window-width="1920"
     inkscape:window-height="1050"
     inkscape:window-x="0"
     inkscape:window-y="30"
     inkscape:window-maximized="1"
     showborder="true"
     inkscape:showpageshadow="false"
     showguides="true"
     inkscape:guide-bbox="true"
     inkscape:pagecheckerboard="1">
    <inkscape:grid
       type="xygrid"
       id="grid4436"
       empspacing="5"
       visible="true"
       enabled="true"
       snapvisiblegridlinesonly="true"
       originx="0"
       originy="0"
       spacingx="1.0666667"
       spacingy="1.0666667" />
    <sodipodi:guide
       position="-5.3710938,-1.953125"
       orientation="0,1"
       id="guide916"
       inkscape:locked="false" />
  </sodipodi:namedview>
  <metadata
     id="metadata4433">
    <rdf:RDF>
      <cc:Work
         rdf:about="">
        <dc:format>image/svg+xml</dc:format>
        <dc:type
           rdf:resource="http://purl.org/dc/dcmitype/StillImage" />
        <dc:title />
      </cc:Work>
    </rdf:RDF>
  </metadata>
  <g
     inkscape:label="Layer 1"
     inkscape:groupmode="layer"
     id="layer1"
     transform="translate(0,-1106.5197)">
    <g
       id="4"
       inkscape:label="#g3842"
       transform="translate(86.4,-3.2)" />
    <path
       sodipodi:nodetypes="cczccczccczccczcc"
       inkscape:connector-curvature="0"
       id="hover-center"
       d="m 27.999971,1111.2187 -2.888355,-2.8883 c -0.412631,-0.4127 -2.063121,-2.0632 -3.71363,-0.4127 -1.650483,1.6505 -1.4e-5,3.301 0.412611,3.7137 l 2.888356,2.8884 -2.888333,2.8883 c -0.412634,0.4126 -2.063144,2.0631 -0.412648,3.7136 1.650497,1.6505 3.301,0 3.71364,-0.4127 l 2.888333,-2.8883 2.888354,2.8883 c 0.412634,0.4127 2.063122,2.0632 3.713633,0.4127 1.650483,-1.6506 1.2e-5,-3.301 -0.412614,-3.7136 l -2.888354,-2.8883 2.888333,-2.8884 c 0.412634,-0.4127 2.063143,-2.0632 0.412647,-3.7137 -1.650498,-1.6505 -3.300999,0 -3.71364,0.4127 z"
       style="fill:#f589a0;fill-opacity:1;stroke:#f5708a;stroke-width:1.4;stroke-linecap:butt;stroke-linejoin:miter;stroke-miterlimit:4;stroke-dasharray:none;stroke-opacity:1"
       inkscape:label="#hover-center" />
    <path
       sodipodi:nodetypes="cczccczccczccczcc"
       inkscape:connector-curvature="0"
       id="pressed-center"
       d="m 49.99998,1111.2187 -2.888355,-2.8883 c -0.412631,-0.4127 -2.063121,-2.0632 -3.71363,-0.4127 -1.650483,1.6505 -1.4e-5,3.301 0.412611,3.7137 l 2.888356,2.8884 -2.888333,2.8883 c -0.412634,0.4126 -2.063144,2.0631 -0.412648,3.7136 1.650497,1.6505 3.301,0 3.71364,-0.4127 l 2.888333,-2.8883 2.888354,2.8883 c 0.412634,0.4127 2.063122,2.0632 3.713633,0.4127 1.650483,-1.6506 1.2e-5,-3.301 -0.412614,-3.7136 l -2.888354,-2.8883 2.888333,-2.8884 c 0.412634,-0.4127 2.063143,-2.0632 0.412647,-3.7137 -1.650498,-1.6505 -3.300999,0 -3.71364,0.4127 z"
       style="fill:#f55778;fill-opacity:0.980392;stroke:#f1466d;stroke-width:1.4;stroke-linecap:butt;stroke-linejoin:miter;stroke-miterlimit:4;stroke-dasharray:none;stroke-opacity:1"
       inkscape:label="#pressed-center" />
    <path
       sodipodi:nodetypes="cczccczccczccczcc"
       inkscape:connector-curvature="0"
       id="deactivated-center"
       d="m 69.99998,1111.2187 -2.888355,-2.8883 c -0.412631,-0.4127 -2.063121,-2.0632 -3.71363,-0.4127 -1.650483,1.6505 -1.4e-5,3.301 0.412611,3.7137 l 2.888356,2.8884 -2.888333,2.8883 c -0.412634,0.4126 -2.063144,2.0631 -0.412648,3.7136 1.650497,1.6505 3.301,0 3.71364,-0.4127 l 2.888333,-2.8883 2.888354,2.8883 c 0.412634,0.4127 2.063122,2.0632 3.713633,0.4127 1.650483,-1.6506 1.2e-5,-3.301 -0.412614,-3.7136 l -2.888354,-2.8883 2.888333,-2.8884 c 0.412634,-0.4127 2.063143,-2.0632 0.412647,-3.7137 -1.650498,-1.6505 -3.300999,0 -3.71364,0.4127 z"
       style="fill:#4e606e;fill-opacity:1;stroke:#4e606e;stroke-width:1.4;stroke-linecap:butt;stroke-linejoin:miter;stroke-miterlimit:4;stroke-dasharray:none;stroke-opacity:1"
       inkscape:label="#deactivated-center" />
    <path
       sodipodi:nodetypes="cczccczccczccczcc"
       inkscape:connector-curvature="0"
       id="inactive-center"
       d="m 7.999971,1131.2187 -2.888355,-2.8883 c -0.412631,-0.4127 -2.063121,-2.0632 -3.71363,-0.4127 -1.650483,1.6505 -1.4e-5,3.301 0.412611,3.7137 l 2.888356,2.8884 -2.888333,2.8883 c -0.412634,0.4126 -2.063144,2.0631 -0.412648,3.7136 1.650497,1.6505 3.301,0 3.71364,-0.4127 l 2.888333,-2.8883 2.888353,2.8883 c 0.412634,0.4127 2.063122,2.0632 3.713633,0.4127 1.650484,-1.6506 1.2e-5,-3.301 -0.412614,-3.7136 l -2.888354,-2.8883 2.888333,-2.8884 c 0.412634,-0.4127 2.063139,-2.0632 0.412647,-3.7137 -1.650498,-1.6505 -3.300999,0 -3.71364,0.4127 z"
       style="opacity:0;fill:none;fill-opacity:1;stroke:#000000;stroke-width:1.4;stroke-linecap:butt;stroke-linejoin:miter;stroke-miterlimit:4;stroke-dasharray:none;stroke-opacity:1"
       inkscape:label="#inactive-center" />
    <path
       inkscape:label="#active-center"
       style="fill:#f56684;fill-opacity:1;stroke:#f15175;stroke-width:1.4;stroke-linecap:butt;stroke-linejoin:miter;stroke-miterlimit:4;stroke-dasharray:none;stroke-opacity:1"
       d="m 7.999971,1111.2187 2.888353,-2.8883 c 0.412649,-0.4127 2.06313,-2.0632 3.71365,-0.4127 1.650482,1.6505 0,3.301 -0.412611,3.7137 l -2.88839,2.8884 2.888352,2.8883 c 0.412649,0.4126 2.063131,2.0631 0.412649,3.7136 -1.65052,1.6505 -3.301001,0 -3.71365,-0.4127 l -2.8883152,-2.8883 -2.8883524,2.8883 c -0.412649,0.4127 -2.063131,2.0632 -3.713651,0.4127 -1.65048201,-1.6506 0,-3.301 0.412611,-3.7136 l 2.888353,-2.8883 -2.888315,-2.8884 c -0.412649,-0.4127 -2.06316701,-2.0632 -0.412649,-3.7137 1.650482,-1.6505 3.301002,0 3.713651,0.4127 z"
       id="active-center"
       inkscape:connector-curvature="0"
       sodipodi:nodetypes="cczccczccczccczcc" />
    <path
       sodipodi:nodetypes="cczccczccczccczcc"
       inkscape:connector-curvature="0"
       id="hover-inactive-center"
       d="m 27.431858,1131.2187 -2.888355,-2.8883 c -0.412631,-0.4127 -2.063121,-2.0632 -3.71363,-0.4127 -1.650483,1.6505 -1.4e-5,3.301 0.412611,3.7137 l 2.888356,2.8884 -2.888333,2.8883 c -0.412634,0.4126 -2.063144,2.0631 -0.412648,3.7136 1.650497,1.6505 3.301,0 3.71364,-0.4127 l 2.888333,-2.8883 2.888353,2.8883 c 0.412634,0.4127 2.063122,2.0632 3.713633,0.4127 1.650484,-1.6506 1.2e-5,-3.301 -0.412614,-3.7136 l -2.888354,-2.8883 2.888333,-2.8884 c 0.412634,-0.4127 2.063139,-2.0632 0.412647,-3.7137 -1.650498,-1.6505 -3.300999,0 -3.71364,0.4127 z"
       style="opacity:0;fill:none;fill-opacity:1;stroke:#000000;stroke-width:1.4;stroke-linecap:butt;stroke-linejoin:miter;stroke-miterlimit:4;stroke-dasharray:none;stroke-opacity:1"
       inkscape:label="#hover-inactive-center" />
    <path
       sodipodi:nodetypes="cczccczccczccczcc"
       inkscape:connector-curvature="0"
       id="deactivated-inactive-center"
       d="m 69.99998,1131.2187 -2.88836,-2.8883 c -0.41263,-0.4127 -2.06312,-2.0632 -3.713629,-0.4127 -1.650483,1.6505 -1.4e-5,3.301 0.412611,3.7137 l 2.888358,2.8884 -2.888335,2.8883 c -0.412634,0.4126 -2.063144,2.0631 -0.412648,3.7136 1.650493,1.6505 3.301003,0 3.713643,-0.4127 l 2.88833,-2.8883 2.88835,2.8883 c 0.41264,0.4127 2.06312,2.0632 3.713642,0.4127 1.65048,-1.6506 1e-5,-3.301 -0.412622,-3.7136 l -2.88835,-2.8883 2.88833,-2.8884 c 0.412632,-0.4127 2.063142,-2.0632 0.412652,-3.7137 -1.650502,-1.6505 -3.301002,0 -3.713642,0.4127 z"
       style="opacity:0;fill:none;fill-opacity:1;stroke:#000000;stroke-width:1.4;stroke-linecap:butt;stroke-linejoin:miter;stroke-miterlimit:4;stroke-dasharray:none;stroke-opacity:1"
       inkscape:label="#deactivated-inactive-center" />
  </g>
</svg>
